<svg xmlns="http://www.w3.org/2000/svg" xmlns:xlink="http://www.w3.org/1999/xlink" width="500" zoomAndPan="magnify" viewBox="0 0 375 374.999991" height="500" preserveAspectRatio="xMidYMid meet" version="1.0"><path fill="#4c5461" d="M 0 3.867188 C 0 3.351562 0.0976562 2.859375 0.292969 2.386719 C 0.492188 1.914062 0.769531 1.496094 1.132812 1.132812 C 1.496094 0.769531 1.914062 0.492188 2.386719 0.292969 C 2.859375 0.0976562 3.351562 0 3.867188 0 L 187.5 77.320312 L 371.132812 0 C 371.648438 0 372.140625 0.0976562 372.613281 0.292969 C 373.085938 0.492188 373.503906 0.769531 373.867188 1.132812 C 374.230469 1.496094 374.507812 1.914062 374.707031 2.386719 C 374.902344 2.859375 375 3.351562 375 3.867188 L 297.679688 187.5 L 375 371.132812 C 375 371.648438 374.902344 372.140625 374.707031 372.613281 C 374.507812 373.085938 374.230469 373.503906 373.867188 373.867188 C 373.503906 374.230469 373.085938 374.507812 372.613281 374.707031 C 372.140625 374.902344 371.648438 375 371.132812 375 L 187.5 297.679688 L 3.867188 375 C 3.351562 375 2.859375 374.902344 2.386719 374.707031 C 1.914062 374.507812 1.496094 374.230469 1.132812 373.867188 C 0.769531 373.503906 0.492188 373.085938 0.292969 372.613281 C 0.0976562 372.140625 0 371.648438 0 371.132812 L 77.320312 187.5 L 0 3.867188 M 187.5 129.511719 C 189.398438 129.511719 191.292969 129.601562 193.183594 129.789062 C 195.074219 129.976562 196.949219 130.253906 198.8125 130.625 C 200.675781 130.996094 202.515625 131.457031 204.332031 132.007812 C 206.152344 132.558594 207.9375 133.199219 209.691406 133.925781 C 211.445312 134.652344 213.160156 135.460938 214.835938 136.359375 C 216.511719 137.253906 218.136719 138.226562 219.71875 139.285156 C 221.296875 140.339844 222.820312 141.46875 224.289062 142.671875 C 225.757812 143.878906 227.160156 145.152344 228.503906 146.496094 C 229.847656 147.839844 231.121094 149.242188 232.328125 150.710938 C 233.53125 152.179688 234.660156 153.703125 235.714844 155.28125 C 236.773438 156.863281 237.746094 158.488281 238.640625 160.164062 C 239.539062 161.839844 240.347656 163.554688 241.074219 165.308594 C 241.800781 167.0625 242.441406 168.847656 242.992188 170.667969 C 243.542969 172.484375 244.003906 174.324219 244.375 176.1875 C 244.746094 178.050781 245.023438 179.925781 245.210938 181.816406 C 245.398438 183.707031 245.488281 185.601562 245.488281 187.5 C 245.488281 189.398438 245.398438 191.292969 245.210938 193.183594 C 245.023438 195.074219 244.746094 196.949219 244.375 198.8125 C 244.003906 200.675781 243.542969 202.515625 242.992188 204.332031 C 242.441406 206.152344 241.800781 207.9375 241.074219 209.691406 C 240.347656 211.445312 239.539062 213.160156 238.640625 214.835938 C 237.746094 216.511719 236.773438 218.136719 235.714844 219.71875 C 234.660156 221.296875 233.53125 222.820312 232.328125 224.289062 C 231.121094 225.757812 229.847656 227.160156 228.503906 228.503906 C 227.160156 229.847656 225.757812 231.121094 224.289062 232.328125 C 222.820312 233.53125 221.296875 234.660156 219.71875 235.714844 C 218.136719 236.773438 216.511719 237.746094 214.835938 238.640625 C 213.160156 239.539062 211.445312 240.347656 209.691406 241.074219 C 207.9375 241.800781 206.152344 242.441406 204.332031 242.992188 C 202.515625 243.542969 200.675781 244.003906 198.8125 244.375 C 196.949219 244.746094 195.074219 245.023438 193.183594 245.210938 C 191.292969 245.398438 189.398438 245.488281 187.5 245.488281 C 185.601562 245.488281 183.707031 245.398438 181.816406 245.210938 C 179.925781 245.023438 178.050781 244.746094 176.1875 244.375 C 174.324219 244.003906 172.484375 243.542969 170.667969 242.992188 C 168.847656 242.441406 167.0625 241.800781 165.308594 241.074219 C 163.554688 240.347656 161.839844 239.539062 160.164062 238.640625 C 158.488281 237.746094 156.863281 236.773438 155.28125 235.714844 C 153.703125 234.660156 152.179688 233.53125 150.710938 232.328125 C 149.242188 231.121094 147.839844 229.847656 146.496094 228.503906 C 145.152344 227.160156 143.878906 225.757812 142.671875 224.289062 C 141.46875 222.820312 140.339844 221.296875 139.285156 219.71875 C 138.226562 218.136719 137.253906 216.511719 136.359375 214.835938 C 135.460938 213.160156 134.652344 211.445312 133.925781 209.691406 C 133.199219 207.9375 132.558594 206.152344 132.007812 204.332031 C 131.457031 202.515625 130.996094 200.675781 130.625 198.8125 C 130.253906 196.949219 129.976562 195.074219 129.789062 193.183594 C 129.601562 191.292969 129.511719 189.398438 129.511719 187.5 C 129.511719 185.601562 129.601562 183.707031 129.789062 181.816406 C 129.976562 179.925781 130.253906 178.050781 130.625 176.1875 C 130.996094 174.324219 131.457031 172.484375 132.007812 170.667969 C 132.558594 168.847656 133.199219 167.0625 133.925781 165.308594 C 134.652344 163.554688 135.460938 161.839844 136.359375 160.164062 C 137.253906 158.488281 138.226562 156.863281 139.285156 155.28125 C 140.339844 153.703125 141.46875 152.179688 142.671875 150.710938 C 143.878906 149.242188 145.152344 147.839844 146.496094 146.496094 C 147.839844 145.152344 149.242188 143.878906 150.710938 142.671875 C 152.179688 141.46875 153.703125 140.339844 155.28125 139.285156 C 156.863281 138.226562 158.488281 137.253906 160.164062 136.359375 C 161.839844 135.460938 163.554688 134.652344 165.308594 133.925781 C 167.0625 133.199219 168.847656 132.558594 170.667969 132.007812 C 172.484375 131.457031 174.324219 130.996094 176.1875 130.625 C 178.050781 130.253906 179.925781 129.976562 181.816406 129.789062 C 183.707031 129.601562 185.601562 129.511719 187.5 129.511719 " fill-opacity="1" fill-rule="evenodd"/><path fill="#000000" d="M 187.5 127.578125 C 189.460938 127.578125 191.417969 127.675781 193.371094 127.867188 C 195.324219 128.0625 197.261719 128.351562 199.1875 128.734375 C 201.109375 129.117188 203.011719 129.59375 204.886719 130.164062 C 206.765625 130.734375 208.609375 131.394531 210.421875 132.148438 C 212.234375 132.898438 214.007812 133.738281 215.734375 134.664062 C 217.464844 135.585938 219.144531 136.597656 220.777344 137.6875 C 222.40625 138.777344 223.980469 139.945312 225.496094 141.191406 C 227.015625 142.433594 228.464844 143.75 229.851562 145.136719 C 231.238281 146.527344 232.554688 147.976562 233.800781 149.496094 C 235.042969 151.011719 236.210938 152.585938 237.300781 154.21875 C 238.390625 155.847656 239.398438 157.53125 240.320312 159.261719 C 241.246094 160.992188 242.085938 162.761719 242.835938 164.574219 C 243.585938 166.386719 244.246094 168.234375 244.816406 170.109375 C 245.382812 171.988281 245.859375 173.890625 246.242188 175.8125 C 246.625 177.738281 246.914062 179.675781 247.105469 181.628906 C 247.296875 183.582031 247.394531 185.539062 247.394531 187.5 C 247.394531 189.460938 247.296875 191.417969 247.105469 193.371094 C 246.914062 195.324219 246.625 197.261719 246.242188 199.1875 C 245.859375 201.109375 245.382812 203.011719 244.816406 204.890625 C 244.246094 206.765625 243.585938 208.613281 242.835938 210.425781 C 242.085938 212.238281 241.246094 214.007812 240.320312 215.738281 C 239.398438 217.46875 238.390625 219.152344 237.300781 220.78125 C 236.210938 222.414062 235.042969 223.988281 233.800781 225.503906 C 232.554688 227.023438 231.238281 228.472656 229.851562 229.863281 C 228.464844 231.25 227.015625 232.566406 225.496094 233.808594 C 223.980469 235.054688 222.40625 236.222656 220.777344 237.3125 C 219.144531 238.402344 217.464844 239.414062 215.734375 240.335938 C 214.003906 241.261719 212.234375 242.101562 210.421875 242.851562 C 208.609375 243.605469 206.765625 244.265625 204.886719 244.835938 C 203.011719 245.40625 201.109375 245.882812 199.1875 246.265625 C 197.261719 246.648438 195.324219 246.9375 193.371094 247.132812 C 191.417969 247.324219 189.460938 247.421875 187.5 247.421875 C 185.539062 247.421875 183.582031 247.324219 181.628906 247.132812 C 179.675781 246.9375 177.738281 246.648438 175.8125 246.265625 C 173.890625 245.882812 171.988281 245.40625 170.113281 244.835938 C 168.234375 244.265625 166.390625 243.605469 164.578125 242.851562 C 162.765625 242.101562 160.992188 241.261719 159.265625 240.335938 C 157.535156 239.414062 155.855469 238.402344 154.222656 237.3125 C 152.59375 236.222656 151.019531 235.054688 149.503906 233.808594 C 147.984375 232.566406 146.535156 231.25 145.148438 229.863281 C 143.761719 228.472656 142.445312 227.023438 141.199219 225.503906 C 139.957031 223.988281 138.789062 222.414062 137.699219 220.78125 C 136.609375 219.152344 135.601562 217.46875 134.679688 215.738281 C 133.753906 214.007812 132.914062 212.238281 132.164062 210.425781 C 131.414062 208.613281 130.753906 206.765625 130.183594 204.890625 C 129.617188 203.011719 129.140625 201.109375 128.757812 199.1875 C 128.375 197.261719 128.085938 195.324219 127.894531 193.371094 C 127.703125 191.417969 127.605469 189.460938 127.605469 187.5 C 127.605469 185.539062 127.703125 183.582031 127.894531 181.628906 C 128.085938 179.675781 128.375 177.738281 128.757812 175.8125 C 129.140625 173.890625 129.617188 171.988281 130.183594 170.109375 C 130.753906 168.234375 131.414062 166.386719 132.164062 164.574219 C 132.914062 162.761719 133.753906 160.992188 134.679688 159.261719 C 135.601562 157.53125 136.609375 155.847656 137.699219 154.21875 C 138.789062 152.585938 139.957031 151.011719 141.199219 149.496094 C 142.445312 147.976562 143.761719 146.527344 145.148438 145.136719 C 146.535156 143.75 147.984375 142.433594 149.503906 141.191406 C 151.019531 139.945312 152.59375 138.777344 154.222656 137.6875 C 155.855469 136.597656 157.535156 135.585938 159.265625 134.664062 C 160.992188 133.738281 162.765625 132.898438 164.578125 132.148438 C 166.390625 131.394531 168.234375 130.734375 170.113281 130.164062 C 171.988281 129.59375 173.890625 129.117188 175.8125 128.734375 C 177.738281 128.351562 179.675781 128.0625 181.628906 127.867188 C 183.582031 127.675781 185.539062 127.578125 187.5 127.578125 M 187.5 125.644531 C 188.464844 125.53125 189.429688 125.449219 190.394531 125.390625 C 191.363281 125.335938 192.332031 125.304688 193.300781 125.304688 C 194.269531 125.304688 195.238281 125.332031 196.203125 125.386719 C 197.171875 125.441406 198.136719 125.523438 199.101562 125.636719 C 200.066406 125.746094 201.023438 125.882812 201.980469 126.050781 C 202.9375 126.214844 203.890625 126.410156 204.835938 126.628906 C 205.78125 126.847656 206.722656 127.097656 207.65625 127.371094 C 208.59375 127.644531 209.519531 127.945312 210.4375 128.273438 C 211.355469 128.601562 212.269531 128.957031 213.167969 129.335938 C 214.070312 129.71875 214.960938 130.125 215.84375 130.554688 C 216.722656 130.988281 217.59375 131.445312 218.453125 131.925781 C 219.3125 132.40625 220.15625 132.914062 220.988281 133.441406 C 221.820312 133.972656 222.640625 134.527344 223.445312 135.105469 C 224.25 135.683594 225.042969 136.28125 225.816406 136.90625 C 226.59375 137.527344 227.351562 138.171875 228.09375 138.839844 C 228.835938 139.507812 229.5625 140.195312 230.269531 140.902344 C 230.976562 141.609375 231.667969 142.339844 232.339844 143.085938 C 233.011719 143.835938 233.664062 144.601562 234.296875 145.386719 C 234.929688 146.171875 235.542969 146.976562 236.136719 147.796875 C 236.730469 148.617188 237.304688 149.453125 237.855469 150.308594 C 238.40625 151.160156 238.933594 152.03125 239.441406 152.914062 C 239.949219 153.800781 240.433594 154.699219 240.898438 155.609375 C 241.359375 156.523438 241.800781 157.445312 242.214844 158.382812 C 242.632812 159.320312 243.023438 160.269531 243.394531 161.230469 C 243.761719 162.191406 244.105469 163.160156 244.425781 164.140625 C 244.746094 165.121094 245.042969 166.109375 245.3125 167.105469 C 245.582031 168.101562 245.828125 169.105469 246.046875 170.117188 C 246.269531 171.128906 246.460938 172.144531 246.632812 173.164062 C 246.800781 174.1875 246.945312 175.214844 247.0625 176.246094 C 247.179688 177.273438 247.273438 178.308594 247.339844 179.34375 C 247.40625 180.378906 247.445312 181.417969 247.457031 182.453125 C 247.472656 183.492188 247.460938 184.53125 247.421875 185.566406 C 247.625 186.535156 247.800781 187.503906 247.941406 188.480469 C 248.085938 189.457031 248.199219 190.433594 248.277344 191.414062 C 248.359375 192.394531 248.410156 193.378906 248.429688 194.363281 C 248.449219 195.347656 248.4375 196.328125 248.398438 197.3125 C 248.355469 198.296875 248.28125 199.277344 248.175781 200.257812 C 248.074219 201.234375 247.9375 202.210938 247.773438 203.183594 C 247.609375 204.15625 247.414062 205.125 247.1875 206.085938 C 246.960938 207.050781 246.707031 208.007812 246.417969 208.957031 C 246.132812 209.90625 245.816406 210.847656 245.472656 211.78125 C 245.128906 212.714844 244.753906 213.636719 244.351562 214.550781 C 243.945312 215.46875 243.515625 216.371094 243.054688 217.261719 C 242.59375 218.15625 242.105469 219.035156 241.59375 219.902344 C 241.078125 220.769531 240.535156 221.625 239.964844 222.464844 C 239.394531 223.304688 238.800781 224.128906 238.179688 224.941406 C 237.558594 225.75 236.914062 226.542969 236.242188 227.320312 C 235.574219 228.097656 234.878906 228.855469 234.160156 229.597656 C 233.441406 230.339844 232.699219 231.0625 231.9375 231.765625 C 231.171875 232.46875 230.386719 233.152344 229.582031 233.816406 C 228.773438 234.480469 227.945312 235.125 227.097656 235.746094 C 226.25 236.367188 225.386719 236.96875 224.5 237.546875 C 223.617188 238.125 222.714844 238.679688 221.792969 239.210938 C 220.875 239.742188 219.9375 240.25 218.988281 240.734375 C 218.035156 241.21875 217.070312 241.675781 216.089844 242.113281 C 215.109375 242.546875 214.113281 242.957031 213.109375 243.339844 C 212.101562 243.726562 211.085938 244.085938 210.054688 244.417969 C 209.027344 244.75 207.988281 245.054688 206.941406 245.335938 C 205.890625 245.617188 204.835938 245.867188 203.773438 246.09375 C 202.707031 246.320312 201.636719 246.519531 200.5625 246.691406 C 199.484375 246.863281 198.402344 247.007812 197.320312 247.121094 C 196.234375 247.238281 195.144531 247.328125 194.054688 247.390625 C 192.960938 247.449219 191.871094 247.484375 190.777344 247.488281 C 189.683594 247.496094 188.589844 247.472656 187.5 247.421875 C 186.441406 247.550781 185.378906 247.652344 184.316406 247.71875 C 183.25 247.789062 182.1875 247.828125 181.121094 247.835938 C 180.054688 247.84375 178.988281 247.824219 177.921875 247.769531 C 176.855469 247.71875 175.792969 247.636719 174.734375 247.523438 C 173.671875 247.410156 172.617188 247.265625 171.566406 247.09375 C 170.515625 246.917969 169.46875 246.714844 168.429688 246.484375 C 167.390625 246.25 166.359375 245.988281 165.335938 245.695312 C 164.3125 245.40625 163.300781 245.085938 162.296875 244.734375 C 161.292969 244.386719 160.304688 244.007812 159.324219 243.601562 C 158.34375 243.195312 157.375 242.761719 156.421875 242.300781 C 155.46875 241.839844 154.53125 241.351562 153.605469 240.839844 C 152.683594 240.324219 151.777344 239.785156 150.886719 239.21875 C 149.996094 238.652344 149.121094 238.058594 148.269531 237.445312 C 147.414062 236.828125 146.578125 236.1875 145.765625 235.523438 C 144.949219 234.859375 144.15625 234.175781 143.382812 233.464844 C 142.609375 232.757812 141.859375 232.027344 141.128906 231.273438 C 140.402344 230.523438 139.699219 229.75 139.015625 228.960938 C 138.335938 228.167969 137.679688 227.359375 137.050781 226.527344 C 136.417969 225.699219 135.8125 224.851562 135.234375 223.988281 C 134.652344 223.125 134.101562 222.246094 133.578125 221.351562 C 133.050781 220.457031 132.554688 219.546875 132.085938 218.621094 C 131.613281 217.699219 131.171875 216.761719 130.761719 215.8125 C 130.347656 214.863281 129.964844 213.90625 129.613281 212.933594 C 129.261719 211.964844 128.9375 210.984375 128.644531 209.996094 C 128.351562 209.007812 128.085938 208.011719 127.855469 207.007812 C 127.625 206.003906 127.421875 204.992188 127.25 203.976562 C 127.082031 202.960938 126.941406 201.941406 126.835938 200.917969 C 126.726562 199.894531 126.652344 198.871094 126.605469 197.84375 C 126.5625 196.816406 126.546875 195.785156 126.566406 194.757812 C 126.585938 193.730469 126.632812 192.703125 126.714844 191.675781 C 126.796875 190.652344 126.910156 189.628906 127.050781 188.609375 C 127.195312 187.589844 127.371094 186.578125 127.578125 185.566406 C 127.539062 184.53125 127.527344 183.492188 127.542969 182.453125 C 127.554688 181.417969 127.59375 180.378906 127.660156 179.34375 C 127.726562 178.308594 127.820312 177.273438 127.9375 176.246094 C 128.054688 175.214844 128.199219 174.1875 128.367188 173.164062 C 128.539062 172.144531 128.730469 171.128906 128.953125 170.117188 C 129.171875 169.105469 129.417969 168.101562 129.6875 167.105469 C 129.957031 166.109375 130.253906 165.121094 130.574219 164.140625 C 130.894531 163.160156 131.238281 162.191406 131.605469 161.230469 C 131.976562 160.269531 132.367188 159.320312 132.785156 158.382812 C 133.199219 157.445312 133.640625 156.523438 134.101562 155.609375 C 134.566406 154.699219 135.050781 153.800781 135.558594 152.914062 C 136.066406 152.03125 136.59375 151.160156 137.144531 150.308594 C 137.695312 149.453125 138.269531 148.617188 138.863281 147.796875 C 139.457031 146.976562 140.070312 146.171875 140.703125 145.386719 C 141.335938 144.601562 141.988281 143.835938 142.660156 143.085938 C 143.332031 142.339844 144.023438 141.609375 144.730469 140.902344 C 145.4375 140.195312 146.164062 139.507812 146.90625 138.839844 C 147.648438 138.171875 148.40625 137.527344 149.183594 136.90625 C 149.957031 136.28125 150.75 135.683594 151.554688 135.105469 C 152.359375 134.527344 153.179688 133.972656 154.011719 133.441406 C 154.84375 132.914062 155.6875 132.40625 156.546875 131.925781 C 157.40625 131.445312 158.277344 130.988281 159.15625 130.554688 C 160.039062 130.125 160.929688 129.71875 161.832031 129.335938 C 162.730469 128.957031 163.640625 128.601562 164.5625 128.273438 C 165.480469 127.945312 166.40625 127.644531 167.34375 127.371094 C 168.277344 127.097656 169.21875 126.847656 170.164062 126.628906 C 171.109375 126.410156 172.0625 126.214844 173.019531 126.050781 C 173.976562 125.882812 174.933594 125.746094 175.898438 125.636719 C 176.863281 125.523438 177.828125 125.441406 178.792969 125.386719 C 179.761719 125.332031 180.730469 125.304688 181.699219 125.304688 C 182.667969 125.304688 183.636719 125.335938 184.605469 125.390625 C 185.570312 125.449219 186.535156 125.53125 187.5 125.644531 " fill-opacity="0.5" fill-rule="evenodd"/><path fill="#000000" d="M 1.933594 1.933594 C 1.933594 1.675781 1.980469 1.429688 2.082031 1.191406 C 2.179688 0.957031 2.316406 0.746094 2.5 0.566406 C 2.679688 0.386719 2.890625 0.246094 3.125 0.148438 C 3.363281 0.0507812 3.609375 0 3.867188 0 L 187.5 77.320312 L 371.132812 0 C 371.390625 0 371.636719 0.0507812 371.875 0.148438 C 372.109375 0.246094 372.320312 0.386719 372.5 0.566406 C 372.683594 0.746094 372.820312 0.957031 372.917969 1.191406 C 373.019531 1.429688 373.066406 1.675781 373.066406 1.933594 L 230.027344 144.972656 C 229.347656 144.246094 228.65625 143.53125 227.941406 142.839844 C 227.230469 142.144531 226.5 141.46875 225.75 140.816406 C 225.003906 140.160156 224.238281 139.523438 223.457031 138.90625 C 222.679688 138.289062 221.882812 137.691406 221.070312 137.117188 C 220.261719 136.539062 219.433594 135.984375 218.59375 135.453125 C 217.753906 134.917969 216.902344 134.40625 216.035156 133.917969 C 215.171875 133.429688 214.292969 132.960938 213.402344 132.515625 C 212.511719 132.074219 211.613281 131.652344 210.699219 131.253906 C 209.789062 130.855469 208.867188 130.480469 207.9375 130.128906 C 207.003906 129.78125 206.066406 129.453125 205.117188 129.152344 C 204.171875 128.847656 203.214844 128.570312 202.253906 128.316406 C 201.292969 128.066406 200.324219 127.835938 199.351562 127.632812 C 198.375 127.429688 197.398438 127.253906 196.414062 127.097656 C 195.433594 126.945312 194.445312 126.820312 193.457031 126.714844 C 192.46875 126.613281 191.476562 126.539062 190.480469 126.488281 C 189.488281 126.433594 188.496094 126.410156 187.5 126.410156 C 186.503906 126.410156 185.511719 126.433594 184.519531 126.488281 C 183.523438 126.539062 182.53125 126.613281 181.542969 126.714844 C 180.554688 126.820312 179.566406 126.945312 178.585938 127.097656 C 177.601562 127.253906 176.625 127.429688 175.648438 127.632812 C 174.675781 127.835938 173.707031 128.066406 172.746094 128.316406 C 171.785156 128.570312 170.828125 128.847656 169.882812 129.152344 C 168.933594 129.453125 167.996094 129.78125 167.0625 130.128906 C 166.132812 130.480469 165.210938 130.855469 164.300781 131.253906 C 163.386719 131.652344 162.488281 132.074219 161.597656 132.515625 C 160.707031 132.960938 159.828125 133.429688 158.964844 133.917969 C 158.097656 134.40625 157.242188 134.917969 156.40625 135.453125 C 155.566406 135.984375 154.738281 136.539062 153.929688 137.117188 C 153.117188 137.691406 152.320312 138.289062 151.542969 138.90625 C 150.761719 139.523438 149.996094 140.160156 149.25 140.816406 C 148.5 141.46875 147.769531 142.144531 147.058594 142.839844 C 146.34375 143.53125 145.652344 144.246094 144.972656 144.972656 Z M 1.933594 1.933594 " fill-opacity="0.3" fill-rule="evenodd"/><path fill="#000000" d="M 1.933594 373.066406 C 1.933594 373.324219 1.980469 373.570312 2.082031 373.808594 C 2.179688 374.042969 2.316406 374.253906 2.5 374.433594 C 2.679688 374.613281 2.890625 374.753906 3.125 374.851562 C 3.363281 374.949219 3.609375 375 3.867188 375 L 187.5 297.679688 L 371.132812 375 C 371.390625 375 371.636719 374.949219 371.875 374.851562 C 372.109375 374.753906 372.320312 374.613281 372.5 374.433594 C 372.683594 374.253906 372.820312 374.042969 372.917969 373.808594 C 373.019531 373.570312 373.066406 373.324219 373.066406 373.066406 L 230.027344 230.027344 C 229.347656 230.753906 228.65625 231.46875 227.941406 232.160156 C 227.230469 232.855469 226.5 233.527344 225.75 234.183594 C 225.003906 234.839844 224.238281 235.476562 223.457031 236.09375 C 222.679688 236.710938 221.882812 237.308594 221.070312 237.882812 C 220.261719 238.460938 219.433594 239.015625 218.59375 239.546875 C 217.753906 240.082031 216.902344 240.59375 216.035156 241.082031 C 215.171875 241.570312 214.292969 242.039062 213.402344 242.484375 C 212.511719 242.925781 211.613281 243.347656 210.699219 243.746094 C 209.789062 244.144531 208.867188 244.519531 207.9375 244.871094 C 207.003906 245.21875 206.066406 245.546875 205.117188 245.847656 C 204.171875 246.152344 203.214844 246.429688 202.253906 246.683594 C 201.292969 246.933594 200.324219 247.164062 199.351562 247.367188 C 198.375 247.570312 197.398438 247.746094 196.414062 247.902344 C 195.433594 248.054688 194.445312 248.179688 193.457031 248.285156 C 192.46875 248.386719 191.476562 248.460938 190.480469 248.511719 C 189.488281 248.566406 188.496094 248.589844 187.5 248.589844 C 186.503906 248.589844 185.511719 248.566406 184.519531 248.511719 C 183.523438 248.460938 182.53125 248.386719 181.542969 248.285156 C 180.554688 248.179688 179.566406 248.054688 178.585938 247.902344 C 177.601562 247.746094 176.625 247.570312 175.648438 247.367188 C 174.675781 247.164062 173.707031 246.933594 172.746094 246.683594 C 171.785156 246.429688 170.828125 246.152344 169.882812 245.847656 C 168.933594 245.546875 167.996094 245.21875 167.0625 244.871094 C 166.132812 244.519531 165.210938 244.144531 164.300781 243.746094 C 163.386719 243.347656 162.488281 242.925781 161.597656 242.484375 C 160.707031 242.039062 159.828125 241.570312 158.964844 241.082031 C 158.097656 240.59375 157.242188 240.082031 156.40625 239.546875 C 155.566406 239.015625 154.738281 238.460938 153.929688 237.882812 C 153.117188 237.308594 152.320312 236.710938 151.542969 236.09375 C 150.761719 235.476562 149.996094 234.839844 149.25 234.183594 C 148.5 233.527344 147.769531 232.855469 147.058594 232.160156 C 146.34375 231.46875 145.652344 230.753906 144.972656 230.027344 Z M 1.933594 373.066406 " fill-opacity="0.1" fill-rule="evenodd"/><path fill="#ffffff" d="M 1.933594 1.933594 C 1.675781 1.933594 1.429688 1.980469 1.191406 2.082031 C 0.957031 2.179688 0.746094 2.316406 0.566406 2.5 C 0.386719 2.679688 0.246094 2.890625 0.148438 3.125 C 0.0507812 3.363281 0 3.609375 0 3.867188 L 77.320312 187.5 L 127.578125 187.5 C 127.503906 183.550781 127.828125 179.632812 128.550781 175.75 C 129.277344 171.867188 130.386719 168.097656 131.882812 164.441406 C 133.378906 160.785156 135.230469 157.316406 137.433594 154.039062 C 139.640625 150.761719 142.152344 147.738281 144.972656 144.972656 Z M 1.933594 1.933594 " fill-opacity="0.15" fill-rule="nonzero"/><path fill="#000000" d="M 1.933594 373.066406 C 1.675781 373.066406 1.429688 373.019531 1.191406 372.917969 C 0.957031 372.820312 0.746094 372.683594 0.566406 372.5 C 0.386719 372.320312 0.246094 372.109375 0.148438 371.875 C 0.0507812 371.636719 0 371.390625 0 371.132812 L 77.320312 187.5 L 127.578125 187.5 C 127.503906 191.449219 127.828125 195.367188 128.550781 199.25 C 129.277344 203.132812 130.386719 206.902344 131.882812 210.558594 C 133.378906 214.214844 135.230469 217.683594 137.433594 220.960938 C 139.640625 224.238281 142.152344 227.261719 144.972656 230.027344 Z M 1.933594 373.066406 " fill-opacity="0.2" fill-rule="nonzero"/><path fill="#ffffff" d="M 373.066406 1.933594 C 373.324219 1.933594 373.570312 1.980469 373.808594 2.082031 C 374.042969 2.179688 374.253906 2.316406 374.433594 2.5 C 374.613281 2.679688 374.753906 2.890625 374.851562 3.125 C 374.949219 3.363281 375 3.609375 375 3.867188 L 297.679688 187.5 L 247.421875 187.5 C 247.496094 183.550781 247.171875 179.632812 246.449219 175.75 C 245.722656 171.867188 244.613281 168.097656 243.117188 164.441406 C 241.621094 160.785156 239.769531 157.316406 237.566406 154.039062 C 235.359375 150.761719 232.847656 147.738281 230.027344 144.972656 Z M 373.066406 1.933594 " fill-opacity="0.15" fill-rule="nonzero"/><path fill="#000000" d="M 373.066406 373.066406 C 373.324219 373.066406 373.570312 373.019531 373.808594 372.917969 C 374.042969 372.820312 374.253906 372.683594 374.433594 372.5 C 374.613281 372.320312 374.753906 372.109375 374.851562 371.875 C 374.949219 371.636719 375 371.390625 375 371.132812 L 297.679688 187.5 L 247.421875 187.5 C 247.496094 191.449219 247.171875 195.367188 246.449219 199.25 C 245.722656 203.132812 244.613281 206.902344 243.117188 210.558594 C 241.621094 214.214844 239.769531 217.683594 237.566406 220.960938 C 235.359375 224.238281 232.847656 227.261719 230.027344 230.027344 Z M 373.066406 373.066406 " fill-opacity="0.2" fill-rule="nonzero"/><path fill="#5d5d5d" d="M 187.5 129.511719 C 189.398438 129.511719 191.292969 129.601562 193.183594 129.789062 C 195.074219 129.976562 196.949219 130.253906 198.8125 130.625 C 200.675781 130.996094 202.515625 131.457031 204.332031 132.007812 C 206.152344 132.558594 207.9375 133.199219 209.691406 133.925781 C 211.445312 134.652344 213.160156 135.460938 214.835938 136.359375 C 216.511719 137.253906 218.136719 138.226562 219.71875 139.285156 C 221.296875 140.339844 222.820312 141.46875 224.289062 142.671875 C 225.757812 143.878906 227.160156 145.152344 228.503906 146.496094 C 229.847656 147.839844 231.121094 149.242188 232.328125 150.710938 C 233.53125 152.179688 234.660156 153.703125 235.714844 155.28125 C 236.773438 156.863281 237.746094 158.488281 238.640625 160.164062 C 239.539062 161.839844 240.347656 163.554688 241.074219 165.308594 C 241.800781 167.0625 242.441406 168.847656 242.992188 170.667969 C 243.542969 172.484375 244.003906 174.324219 244.375 176.1875 C 244.746094 178.050781 245.023438 179.925781 245.210938 181.816406 C 245.398438 183.707031 245.488281 185.601562 245.488281 187.5 C 245.488281 189.398438 245.398438 191.292969 245.210938 193.183594 C 245.023438 195.074219 244.746094 196.949219 244.375 198.8125 C 244.003906 200.675781 243.542969 202.515625 242.992188 204.332031 C 242.441406 206.152344 241.800781 207.9375 241.074219 209.691406 C 240.347656 211.445312 239.539062 213.160156 238.640625 214.835938 C 237.746094 216.511719 236.773438 218.136719 235.714844 219.71875 C 234.660156 221.296875 233.53125 222.820312 232.328125 224.289062 C 231.121094 225.757812 229.847656 227.160156 228.503906 228.503906 C 227.160156 229.847656 225.757812 231.121094 224.289062 232.328125 C 222.820312 233.53125 221.296875 234.660156 219.71875 235.714844 C 218.136719 236.773438 216.511719 237.746094 214.835938 238.640625 C 213.160156 239.539062 211.445312 240.347656 209.691406 241.074219 C 207.9375 241.800781 206.152344 242.441406 204.332031 242.992188 C 202.515625 243.542969 200.675781 244.003906 198.8125 244.375 C 196.949219 244.746094 195.074219 245.023438 193.183594 245.210938 C 191.292969 245.398438 189.398438 245.488281 187.5 245.488281 C 185.601562 245.488281 183.707031 245.398438 181.816406 245.210938 C 179.925781 245.023438 178.050781 244.746094 176.1875 244.375 C 174.324219 244.003906 172.484375 243.542969 170.667969 242.992188 C 168.847656 242.441406 167.0625 241.800781 165.308594 241.074219 C 163.554688 240.347656 161.839844 239.539062 160.164062 238.640625 C 158.488281 237.746094 156.863281 236.773438 155.28125 235.714844 C 153.703125 234.660156 152.179688 233.53125 150.710938 232.328125 C 149.242188 231.121094 147.839844 229.847656 146.496094 228.503906 C 145.152344 227.160156 143.878906 225.757812 142.671875 224.289062 C 141.46875 222.820312 140.339844 221.296875 139.285156 219.71875 C 138.226562 218.136719 137.253906 216.511719 136.359375 214.835938 C 135.460938 213.160156 134.652344 211.445312 133.925781 209.691406 C 133.199219 207.9375 132.558594 206.152344 132.007812 204.332031 C 131.457031 202.515625 130.996094 200.675781 130.625 198.8125 C 130.253906 196.949219 129.976562 195.074219 129.789062 193.183594 C 129.601562 191.292969 129.511719 189.398438 129.511719 187.5 C 129.511719 185.601562 129.601562 183.707031 129.789062 181.816406 C 129.976562 179.925781 130.253906 178.050781 130.625 176.1875 C 130.996094 174.324219 131.457031 172.484375 132.007812 170.667969 C 132.558594 168.847656 133.199219 167.0625 133.925781 165.308594 C 134.652344 163.554688 135.460938 161.839844 136.359375 160.164062 C 137.253906 158.488281 138.226562 156.863281 139.285156 155.28125 C 140.339844 153.703125 141.46875 152.179688 142.671875 150.710938 C 143.878906 149.242188 145.152344 147.839844 146.496094 146.496094 C 147.839844 145.152344 149.242188 143.878906 150.710938 142.671875 C 152.179688 141.46875 153.703125 140.339844 155.28125 139.285156 C 156.863281 138.226562 158.488281 137.253906 160.164062 136.359375 C 161.839844 135.460938 163.554688 134.652344 165.308594 133.925781 C 167.0625 133.199219 168.847656 132.558594 170.667969 132.007812 C 172.484375 131.457031 174.324219 130.996094 176.1875 130.625 C 178.050781 130.253906 179.925781 129.976562 181.816406 129.789062 C 183.707031 129.601562 185.601562 129.511719 187.5 129.511719 M 187.5 127.578125 C 189.460938 127.578125 191.417969 127.675781 193.371094 127.867188 C 195.324219 128.0625 197.261719 128.351562 199.1875 128.734375 C 201.109375 129.117188 203.011719 129.59375 204.886719 130.164062 C 206.765625 130.734375 208.609375 131.394531 210.421875 132.148438 C 212.234375 132.898438 214.007812 133.738281 215.734375 134.664062 C 217.464844 135.585938 219.144531 136.597656 220.777344 137.6875 C 222.40625 138.777344 223.980469 139.945312 225.496094 141.191406 C 227.015625 142.433594 228.464844 143.75 229.851562 145.136719 C 231.238281 146.527344 232.554688 147.976562 233.800781 149.496094 C 235.042969 151.011719 236.210938 152.585938 237.300781 154.21875 C 238.390625 155.847656 239.398438 157.53125 240.320312 159.261719 C 241.246094 160.992188 242.085938 162.761719 242.835938 164.574219 C 243.585938 166.386719 244.246094 168.234375 244.816406 170.109375 C 245.382812 171.988281 245.859375 173.890625 246.242188 175.8125 C 246.625 177.738281 246.914062 179.675781 247.105469 181.628906 C 247.296875 183.582031 247.394531 185.539062 247.394531 187.5 C 247.394531 189.460938 247.296875 191.417969 247.105469 193.371094 C 246.914062 195.324219 246.625 197.261719 246.242188 199.1875 C 245.859375 201.109375 245.382812 203.011719 244.816406 204.890625 C 244.246094 206.765625 243.585938 208.613281 242.835938 210.425781 C 242.085938 212.238281 241.246094 214.007812 240.320312 215.738281 C 239.398438 217.46875 238.390625 219.152344 237.300781 220.78125 C 236.210938 222.414062 235.042969 223.988281 233.800781 225.503906 C 232.554688 227.023438 231.238281 228.472656 229.851562 229.863281 C 228.464844 231.25 227.015625 232.566406 225.496094 233.808594 C 223.980469 235.054688 222.40625 236.222656 220.777344 237.3125 C 219.144531 238.402344 217.464844 239.414062 215.734375 240.335938 C 214.003906 241.261719 212.234375 242.101562 210.421875 242.851562 C 208.609375 243.605469 206.765625 244.265625 204.886719 244.835938 C 203.011719 245.40625 201.109375 245.882812 199.1875 246.265625 C 197.261719 246.648438 195.324219 246.9375 193.371094 247.132812 C 191.417969 247.324219 189.460938 247.421875 187.5 247.421875 C 185.539062 247.421875 183.582031 247.324219 181.628906 247.132812 C 179.675781 246.9375 177.738281 246.648438 175.8125 246.265625 C 173.890625 245.882812 171.988281 245.40625 170.113281 244.835938 C 168.234375 244.265625 166.390625 243.605469 164.578125 242.851562 C 162.765625 242.101562 160.992188 241.261719 159.265625 240.335938 C 157.535156 239.414062 155.855469 238.402344 154.222656 237.3125 C 152.59375 236.222656 151.019531 235.054688 149.503906 233.808594 C 147.984375 232.566406 146.535156 231.25 145.148438 229.863281 C 143.761719 228.472656 142.445312 227.023438 141.199219 225.503906 C 139.957031 223.988281 138.789062 222.414062 137.699219 220.78125 C 136.609375 219.152344 135.601562 217.46875 134.679688 215.738281 C 133.753906 214.007812 132.914062 212.238281 132.164062 210.425781 C 131.414062 208.613281 130.753906 206.765625 130.183594 204.890625 C 129.617188 203.011719 129.140625 201.109375 128.757812 199.1875 C 128.375 197.261719 128.085938 195.324219 127.894531 193.371094 C 127.703125 191.417969 127.605469 189.460938 127.605469 187.5 C 127.605469 185.539062 127.703125 183.582031 127.894531 181.628906 C 128.085938 179.675781 128.375 177.738281 128.757812 175.8125 C 129.140625 173.890625 129.617188 171.988281 130.183594 170.109375 C 130.753906 168.234375 131.414062 166.386719 132.164062 164.574219 C 132.914062 162.761719 133.753906 160.992188 134.679688 159.261719 C 135.601562 157.53125 136.609375 155.847656 137.699219 154.21875 C 138.789062 152.585938 139.957031 151.011719 141.199219 149.496094 C 142.445312 147.976562 143.761719 146.527344 145.148438 145.136719 C 146.535156 143.75 147.984375 142.433594 149.503906 141.191406 C 151.019531 139.945312 152.59375 138.777344 154.222656 137.6875 C 155.855469 136.597656 157.535156 135.585938 159.265625 134.664062 C 160.992188 133.738281 162.765625 132.898438 164.578125 132.148438 C 166.390625 131.394531 168.234375 130.734375 170.113281 130.164062 C 171.988281 129.59375 173.890625 129.117188 175.8125 128.734375 C 177.738281 128.351562 179.675781 128.0625 181.628906 127.867188 C 183.582031 127.675781 185.539062 127.578125 187.5 127.578125 " fill-opacity="1" fill-rule="evenodd"/><path fill="#c1c1c1" d="M 187.5 129.511719 C 189.398438 129.511719 191.292969 129.601562 193.183594 129.789062 C 195.074219 129.976562 196.949219 130.253906 198.8125 130.625 C 200.675781 130.996094 202.515625 131.457031 204.332031 132.007812 C 206.152344 132.558594 207.9375 133.199219 209.691406 133.925781 C 211.445312 134.652344 213.160156 135.460938 214.835938 136.359375 C 216.511719 137.253906 218.136719 138.226562 219.71875 139.285156 C 221.296875 140.339844 222.820312 141.46875 224.289062 142.671875 C 225.757812 143.878906 227.160156 145.152344 228.503906 146.496094 C 229.847656 147.839844 231.121094 149.242188 232.328125 150.710938 C 233.53125 152.179688 234.660156 153.703125 235.714844 155.28125 C 236.773438 156.863281 237.746094 158.488281 238.640625 160.164062 C 239.539062 161.839844 240.347656 163.554688 241.074219 165.308594 C 241.800781 167.0625 242.441406 168.847656 242.992188 170.667969 C 243.542969 172.484375 244.003906 174.324219 244.375 176.1875 C 244.746094 178.050781 245.023438 179.925781 245.210938 181.816406 C 245.398438 183.707031 245.488281 185.601562 245.488281 187.5 C 245.488281 189.398438 245.398438 191.292969 245.210938 193.183594 C 245.023438 195.074219 244.746094 196.949219 244.375 198.8125 C 244.003906 200.675781 243.542969 202.515625 242.992188 204.332031 C 242.441406 206.152344 241.800781 207.9375 241.074219 209.691406 C 240.347656 211.445312 239.539062 213.160156 238.640625 214.835938 C 237.746094 216.511719 236.773438 218.136719 235.714844 219.71875 C 234.660156 221.296875 233.53125 222.820312 232.328125 224.289062 C 231.121094 225.757812 229.847656 227.160156 228.503906 228.503906 C 227.160156 229.847656 225.757812 231.121094 224.289062 232.328125 C 222.820312 233.53125 221.296875 234.660156 219.71875 235.714844 C 218.136719 236.773438 216.511719 237.746094 214.835938 238.640625 C 213.160156 239.539062 211.445312 240.347656 209.691406 241.074219 C 207.9375 241.800781 206.152344 242.441406 204.332031 242.992188 C 202.515625 243.542969 200.675781 244.003906 198.8125 244.375 C 196.949219 244.746094 195.074219 245.023438 193.183594 245.210938 C 191.292969 245.398438 189.398438 245.488281 187.5 245.488281 C 185.601562 245.488281 183.707031 245.398438 181.816406 245.210938 C 179.925781 245.023438 178.050781 244.746094 176.1875 244.375 C 174.324219 244.003906 172.484375 243.542969 170.667969 242.992188 C 168.847656 242.441406 167.0625 241.800781 165.308594 241.074219 C 163.554688 240.347656 161.839844 239.539062 160.164062 238.640625 C 158.488281 237.746094 156.863281 236.773438 155.28125 235.714844 C 153.703125 234.660156 152.179688 233.53125 150.710938 232.328125 C 149.242188 231.121094 147.839844 229.847656 146.496094 228.503906 C 145.152344 227.160156 143.878906 225.757812 142.671875 224.289062 C 141.46875 222.820312 140.339844 221.296875 139.285156 219.71875 C 138.226562 218.136719 137.253906 216.511719 136.359375 214.835938 C 135.460938 213.160156 134.652344 211.445312 133.925781 209.691406 C 133.199219 207.9375 132.558594 206.152344 132.007812 204.332031 C 131.457031 202.515625 130.996094 200.675781 130.625 198.8125 C 130.253906 196.949219 129.976562 195.074219 129.789062 193.183594 C 129.601562 191.292969 129.511719 189.398438 129.511719 187.5 C 129.511719 185.601562 129.601562 183.707031 129.789062 181.816406 C 129.976562 179.925781 130.253906 178.050781 130.625 176.1875 C 130.996094 174.324219 131.457031 172.484375 132.007812 170.667969 C 132.558594 168.847656 133.199219 167.0625 133.925781 165.308594 C 134.652344 163.554688 135.460938 161.839844 136.359375 160.164062 C 137.253906 158.488281 138.226562 156.863281 139.285156 155.28125 C 140.339844 153.703125 141.46875 152.179688 142.671875 150.710938 C 143.878906 149.242188 145.152344 147.839844 146.496094 146.496094 C 147.839844 145.152344 149.242188 143.878906 150.710938 142.671875 C 152.179688 141.46875 153.703125 140.339844 155.28125 139.285156 C 156.863281 138.226562 158.488281 137.253906 160.164062 136.359375 C 161.839844 135.460938 163.554688 134.652344 165.308594 133.925781 C 167.0625 133.199219 168.847656 132.558594 170.667969 132.007812 C 172.484375 131.457031 174.324219 130.996094 176.1875 130.625 C 178.050781 130.253906 179.925781 129.976562 181.816406 129.789062 C 183.707031 129.601562 185.601562 129.511719 187.5 129.511719 M 187.5 135.308594 C 189.210938 135.308594 190.914062 135.394531 192.617188 135.5625 C 194.316406 135.726562 196.003906 135.980469 197.683594 136.3125 C 199.359375 136.644531 201.015625 137.058594 202.648438 137.554688 C 204.285156 138.054688 205.894531 138.628906 207.472656 139.28125 C 209.050781 139.9375 210.59375 140.667969 212.101562 141.472656 C 213.609375 142.277344 215.074219 143.15625 216.496094 144.105469 C 217.917969 145.054688 219.289062 146.070312 220.609375 147.15625 C 221.929688 148.242188 223.195312 149.386719 224.40625 150.59375 C 225.613281 151.804688 226.757812 153.070312 227.84375 154.390625 C 228.929688 155.710938 229.945312 157.082031 230.894531 158.503906 C 231.84375 159.925781 232.722656 161.390625 233.527344 162.898438 C 234.332031 164.40625 235.0625 165.949219 235.71875 167.527344 C 236.371094 169.105469 236.945312 170.714844 237.445312 172.351562 C 237.941406 173.984375 238.355469 175.640625 238.6875 177.316406 C 239.019531 178.996094 239.273438 180.683594 239.4375 182.382812 C 239.605469 184.085938 239.691406 185.789062 239.691406 187.5 C 239.691406 189.210938 239.605469 190.914062 239.4375 192.617188 C 239.273438 194.316406 239.019531 196.003906 238.6875 197.683594 C 238.355469 199.359375 237.941406 201.015625 237.445312 202.648438 C 236.945312 204.285156 236.371094 205.894531 235.71875 207.472656 C 235.0625 209.050781 234.332031 210.59375 233.527344 212.101562 C 232.722656 213.609375 231.84375 215.074219 230.894531 216.496094 C 229.945312 217.917969 228.929688 219.289062 227.84375 220.609375 C 226.757812 221.929688 225.613281 223.195312 224.40625 224.40625 C 223.195312 225.613281 221.929688 226.757812 220.609375 227.84375 C 219.289062 228.929688 217.917969 229.945312 216.496094 230.894531 C 215.074219 231.84375 213.609375 232.722656 212.101562 233.527344 C 210.59375 234.332031 209.050781 235.0625 207.472656 235.71875 C 205.894531 236.371094 204.285156 236.945312 202.648438 237.445312 C 201.015625 237.941406 199.359375 238.355469 197.683594 238.6875 C 196.003906 239.019531 194.316406 239.273438 192.617188 239.4375 C 190.914062 239.605469 189.210938 239.691406 187.5 239.691406 C 185.789062 239.691406 184.085938 239.605469 182.382812 239.4375 C 180.683594 239.273438 178.996094 239.019531 177.316406 238.6875 C 175.640625 238.355469 173.984375 237.941406 172.351562 237.445312 C 170.714844 236.945312 169.105469 236.371094 167.527344 235.71875 C 165.949219 235.0625 164.40625 234.332031 162.898438 233.527344 C 161.390625 232.722656 159.925781 231.84375 158.503906 230.894531 C 157.082031 229.945312 155.710938 228.929688 154.390625 227.84375 C 153.070312 226.757812 151.804688 225.613281 150.59375 224.40625 C 149.386719 223.195312 148.242188 221.929688 147.15625 220.609375 C 146.070312 219.289062 145.054688 217.917969 144.105469 216.496094 C 143.15625 215.074219 142.277344 213.609375 141.472656 212.101562 C 140.667969 210.59375 139.9375 209.050781 139.28125 207.472656 C 138.628906 205.894531 138.054688 204.285156 137.554688 202.648438 C 137.058594 201.015625 136.644531 199.359375 136.3125 197.683594 C 135.980469 196.003906 135.726562 194.316406 135.5625 192.617188 C 135.394531 190.914062 135.308594 189.210938 135.308594 187.5 C 135.308594 185.789062 135.394531 184.085938 135.5625 182.382812 C 135.726562 180.683594 135.980469 178.996094 136.3125 177.316406 C 136.644531 175.640625 137.058594 173.984375 137.554688 172.351562 C 138.054688 170.714844 138.628906 169.105469 139.28125 167.527344 C 139.9375 165.949219 140.667969 164.40625 141.472656 162.898438 C 142.277344 161.390625 143.15625 159.925781 144.105469 158.503906 C 145.054688 157.082031 146.070312 155.710938 147.15625 154.390625 C 148.242188 153.070312 149.386719 151.804688 150.59375 150.59375 C 151.804688 149.386719 153.070312 148.242188 154.390625 147.15625 C 155.710938 146.070312 157.082031 145.054688 158.503906 144.105469 C 159.925781 143.15625 161.390625 142.277344 162.898438 141.472656 C 164.40625 140.667969 165.949219 139.9375 167.527344 139.28125 C 169.105469 138.628906 170.714844 138.054688 172.351562 137.554688 C 173.984375 137.058594 175.640625 136.644531 177.316406 136.3125 C 178.996094 135.980469 180.683594 135.726562 182.382812 135.5625 C 184.085938 135.394531 185.789062 135.308594 187.5 135.308594 " fill-opacity="1" fill-rule="evenodd"/><path fill="#5d5d5d" d="M 187.5 135.308594 C 189.210938 135.308594 190.914062 135.394531 192.617188 135.5625 C 194.316406 135.726562 196.003906 135.980469 197.683594 136.3125 C 199.359375 136.644531 201.015625 137.058594 202.648438 137.554688 C 204.285156 138.054688 205.894531 138.628906 207.472656 139.28125 C 209.050781 139.9375 210.59375 140.667969 212.101562 141.472656 C 213.609375 142.277344 215.074219 143.15625 216.496094 144.105469 C 217.917969 145.054688 219.289062 146.070312 220.609375 147.15625 C 221.929688 148.242188 223.195312 149.386719 224.40625 150.59375 C 225.613281 151.804688 226.757812 153.070312 227.84375 154.390625 C 228.929688 155.710938 229.945312 157.082031 230.894531 158.503906 C 231.84375 159.925781 232.722656 161.390625 233.527344 162.898438 C 234.332031 164.40625 235.0625 165.949219 235.71875 167.527344 C 236.371094 169.105469 236.945312 170.714844 237.445312 172.351562 C 237.941406 173.984375 238.355469 175.640625 238.6875 177.316406 C 239.019531 178.996094 239.273438 180.683594 239.4375 182.382812 C 239.605469 184.085938 239.691406 185.789062 239.691406 187.5 C 239.691406 189.210938 239.605469 190.914062 239.4375 192.617188 C 239.273438 194.316406 239.019531 196.003906 238.6875 197.683594 C 238.355469 199.359375 237.941406 201.015625 237.445312 202.648438 C 236.945312 204.285156 236.371094 205.894531 235.71875 207.472656 C 235.0625 209.050781 234.332031 210.59375 233.527344 212.101562 C 232.722656 213.609375 231.84375 215.074219 230.894531 216.496094 C 229.945312 217.917969 228.929688 219.289062 227.84375 220.609375 C 226.757812 221.929688 225.613281 223.195312 224.40625 224.40625 C 223.195312 225.613281 221.929688 226.757812 220.609375 227.84375 C 219.289062 228.929688 217.917969 229.945312 216.496094 230.894531 C 215.074219 231.84375 213.609375 232.722656 212.101562 233.527344 C 210.59375 234.332031 209.050781 235.0625 207.472656 235.71875 C 205.894531 236.371094 204.285156 236.945312 202.648438 237.445312 C 201.015625 237.941406 199.359375 238.355469 197.683594 238.6875 C 196.003906 239.019531 194.316406 239.273438 192.617188 239.4375 C 190.914062 239.605469 189.210938 239.691406 187.5 239.691406 C 185.789062 239.691406 184.085938 239.605469 182.382812 239.4375 C 180.683594 239.273438 178.996094 239.019531 177.316406 238.6875 C 175.640625 238.355469 173.984375 237.941406 172.351562 237.445312 C 170.714844 236.945312 169.105469 236.371094 167.527344 235.71875 C 165.949219 235.0625 164.40625 234.332031 162.898438 233.527344 C 161.390625 232.722656 159.925781 231.84375 158.503906 230.894531 C 157.082031 229.945312 155.710938 228.929688 154.390625 227.84375 C 153.070312 226.757812 151.804688 225.613281 150.59375 224.40625 C 149.386719 223.195312 148.242188 221.929688 147.15625 220.609375 C 146.070312 219.289062 145.054688 217.917969 144.105469 216.496094 C 143.15625 215.074219 142.277344 213.609375 141.472656 212.101562 C 140.667969 210.59375 139.9375 209.050781 139.28125 207.472656 C 138.628906 205.894531 138.054688 204.285156 137.554688 202.648438 C 137.058594 201.015625 136.644531 199.359375 136.3125 197.683594 C 135.980469 196.003906 135.726562 194.316406 135.5625 192.617188 C 135.394531 190.914062 135.308594 189.210938 135.308594 187.5 C 135.308594 185.789062 135.394531 184.085938 135.5625 182.382812 C 135.726562 180.683594 135.980469 178.996094 136.3125 177.316406 C 136.644531 175.640625 137.058594 173.984375 137.554688 172.351562 C 138.054688 170.714844 138.628906 169.105469 139.28125 167.527344 C 139.9375 165.949219 140.667969 164.40625 141.472656 162.898438 C 142.277344 161.390625 143.15625 159.925781 144.105469 158.503906 C 145.054688 157.082031 146.070312 155.710938 147.15625 154.390625 C 148.242188 153.070312 149.386719 151.804688 150.59375 150.59375 C 151.804688 149.386719 153.070312 148.242188 154.390625 147.15625 C 155.710938 146.070312 157.082031 145.054688 158.503906 144.105469 C 159.925781 143.15625 161.390625 142.277344 162.898438 141.472656 C 164.40625 140.667969 165.949219 139.9375 167.527344 139.28125 C 169.105469 138.628906 170.714844 138.054688 172.351562 137.554688 C 173.984375 137.058594 175.640625 136.644531 177.316406 136.3125 C 178.996094 135.980469 180.683594 135.726562 182.382812 135.5625 C 184.085938 135.394531 185.789062 135.308594 187.5 135.308594 M 187.5 137.242188 C 189.144531 137.242188 190.789062 137.324219 192.425781 137.484375 C 194.0625 137.644531 195.691406 137.886719 197.304688 138.207031 C 198.917969 138.527344 200.515625 138.929688 202.089844 139.40625 C 203.664062 139.882812 205.210938 140.4375 206.734375 141.066406 C 208.253906 141.699219 209.738281 142.402344 211.191406 143.175781 C 212.644531 143.953125 214.054688 144.796875 215.421875 145.710938 C 216.789062 146.625 218.109375 147.605469 219.382812 148.648438 C 220.65625 149.695312 221.875 150.796875 223.039062 151.960938 C 224.203125 153.125 225.304688 154.34375 226.351562 155.617188 C 227.394531 156.890625 228.375 158.210938 229.289062 159.578125 C 230.203125 160.945312 231.046875 162.355469 231.824219 163.808594 C 232.597656 165.261719 233.300781 166.746094 233.933594 168.265625 C 234.5625 169.789062 235.117188 171.335938 235.59375 172.910156 C 236.070312 174.484375 236.472656 176.082031 236.792969 177.695312 C 237.113281 179.308594 237.355469 180.9375 237.515625 182.574219 C 237.675781 184.210938 237.757812 185.855469 237.757812 187.5 C 237.757812 189.144531 237.675781 190.789062 237.515625 192.425781 C 237.355469 194.0625 237.113281 195.691406 236.792969 197.304688 C 236.472656 198.917969 236.070312 200.515625 235.59375 202.089844 C 235.117188 203.664062 234.5625 205.210938 233.933594 206.734375 C 233.300781 208.253906 232.597656 209.738281 231.824219 211.191406 C 231.046875 212.644531 230.203125 214.054688 229.289062 215.421875 C 228.375 216.789062 227.394531 218.109375 226.351562 219.382812 C 225.304688 220.65625 224.203125 221.875 223.039062 223.039062 C 221.875 224.203125 220.65625 225.304688 219.382812 226.351562 C 218.109375 227.394531 216.789062 228.375 215.421875 229.289062 C 214.054688 230.203125 212.644531 231.046875 211.191406 231.824219 C 209.738281 232.597656 208.253906 233.300781 206.734375 233.933594 C 205.210938 234.5625 203.664062 235.117188 202.089844 235.59375 C 200.515625 236.070312 198.917969 236.472656 197.304688 236.792969 C 195.691406 237.113281 194.0625 237.355469 192.425781 237.515625 C 190.789062 237.675781 189.144531 237.757812 187.5 237.757812 C 185.855469 237.757812 184.210938 237.675781 182.574219 237.515625 C 180.9375 237.355469 179.308594 237.113281 177.695312 236.792969 C 176.082031 236.472656 174.484375 236.070312 172.910156 235.59375 C 171.335938 235.117188 169.789062 234.5625 168.265625 233.933594 C 166.746094 233.300781 165.261719 232.597656 163.808594 231.824219 C 162.355469 231.046875 160.945312 230.203125 159.578125 229.289062 C 158.210938 228.375 156.890625 227.394531 155.617188 226.351562 C 154.34375 225.304688 153.125 224.203125 151.960938 223.039062 C 150.796875 221.875 149.695312 220.65625 148.648438 219.382812 C 147.605469 218.109375 146.625 216.789062 145.710938 215.421875 C 144.796875 214.054688 143.953125 212.644531 143.175781 211.191406 C 142.402344 209.738281 141.699219 208.253906 141.066406 206.734375 C 140.4375 205.210938 139.882812 203.664062 139.40625 202.089844 C 138.929688 200.515625 138.527344 198.917969 138.207031 197.304688 C 137.886719 195.691406 137.644531 194.0625 137.484375 192.425781 C 137.324219 190.789062 137.242188 189.144531 137.242188 187.5 C 137.242188 185.855469 137.324219 184.210938 137.484375 182.574219 C 137.644531 180.9375 137.886719 179.308594 138.207031 177.695312 C 138.527344 176.082031 138.929688 174.484375 139.40625 172.910156 C 139.882812 171.335938 140.4375 169.789062 141.066406 168.265625 C 141.699219 166.746094 142.402344 165.261719 143.175781 163.808594 C 143.953125 162.355469 144.796875 160.945312 145.710938 159.578125 C 146.625 158.210938 147.605469 156.890625 148.648438 155.617188 C 149.695312 154.34375 150.796875 153.125 151.960938 151.960938 C 153.125 150.796875 154.34375 149.695312 155.617188 148.648438 C 156.890625 147.605469 158.210938 146.625 159.578125 145.710938 C 160.945312 144.796875 162.355469 143.953125 163.808594 143.175781 C 165.261719 142.402344 166.746094 141.699219 168.265625 141.066406 C 169.789062 140.4375 171.335938 139.882812 172.910156 139.40625 C 174.484375 138.929688 176.082031 138.527344 177.695312 138.207031 C 179.308594 137.886719 180.9375 137.644531 182.574219 137.484375 C 184.210938 137.324219 185.855469 137.242188 187.5 137.242188 " fill-opacity="1" fill-rule="evenodd"/><path fill="#c1c1c1" d="M 139.175781 173.96875 C 139.601562 172.382812 140.105469 170.816406 140.6875 169.277344 C 141.269531 167.738281 141.925781 166.234375 142.652344 164.757812 C 143.382812 163.285156 144.183594 161.851562 145.050781 160.453125 C 145.921875 159.058594 146.859375 157.707031 147.859375 156.402344 C 148.863281 155.101562 149.925781 153.847656 151.050781 152.648438 C 152.175781 151.449219 153.359375 150.308594 154.597656 149.222656 C 155.832031 148.140625 157.121094 147.121094 158.457031 146.164062 C 159.796875 145.207031 161.175781 144.316406 162.601562 143.496094 C 164.027344 142.671875 165.488281 141.925781 166.988281 141.246094 C 168.484375 140.566406 170.015625 139.964844 171.570312 139.4375 C 173.128906 138.910156 174.707031 138.457031 176.3125 138.085938 C 177.914062 137.710938 179.527344 137.417969 181.160156 137.203125 C 182.789062 136.992188 184.429688 136.855469 186.070312 136.804688 C 187.714844 136.75 189.359375 136.777344 191 136.886719 C 192.640625 136.992188 194.273438 137.179688 195.894531 137.449219 C 197.519531 137.71875 199.125 138.0625 200.710938 138.488281 C 202.300781 138.914062 203.867188 139.417969 205.40625 139.996094 C 206.945312 140.578125 208.453125 141.230469 209.925781 141.957031 C 211.402344 142.683594 212.839844 143.480469 214.234375 144.351562 C 215.632812 145.21875 216.984375 146.152344 218.289062 147.152344 C 219.59375 148.15625 220.847656 149.214844 222.046875 150.339844 C 223.246094 151.464844 224.390625 152.644531 225.476562 153.878906 C 226.5625 155.117188 227.582031 156.402344 228.542969 157.738281 C 229.5 159.074219 230.390625 160.457031 231.214844 161.878906 C 232.039062 163.304688 232.789062 164.765625 233.46875 166.261719 C 234.148438 167.761719 234.753906 169.289062 235.285156 170.84375 C 235.8125 172.402344 236.265625 173.980469 236.640625 175.582031 C 237.015625 177.183594 237.3125 178.800781 237.527344 180.429688 C 237.742188 182.0625 237.878906 183.699219 237.933594 185.339844 C 237.988281 186.984375 237.964844 188.628906 237.859375 190.269531 C 237.753906 191.910156 237.566406 193.542969 237.300781 195.164062 C 237.035156 196.789062 236.691406 198.394531 236.265625 199.984375 C 236.472656 198.480469 236.613281 196.972656 236.683594 195.457031 C 236.75 193.941406 236.753906 192.425781 236.683594 190.910156 C 236.617188 189.394531 236.480469 187.886719 236.273438 186.382812 C 236.066406 184.878906 235.792969 183.386719 235.453125 181.90625 C 235.109375 180.425781 234.703125 178.964844 234.230469 177.519531 C 233.753906 176.078125 233.214844 174.65625 232.609375 173.261719 C 232.007812 171.867188 231.339844 170.5 230.613281 169.164062 C 229.886719 167.828125 229.097656 166.527344 228.253906 165.261719 C 227.40625 163.992188 226.503906 162.769531 225.546875 161.582031 C 224.589844 160.398438 223.578125 159.257812 222.519531 158.164062 C 221.457031 157.066406 220.347656 156.023438 219.191406 155.027344 C 218.035156 154.03125 216.839844 153.089844 215.597656 152.199219 C 214.355469 151.3125 213.074219 150.480469 211.757812 149.707031 C 210.441406 148.933594 209.09375 148.222656 207.710938 147.570312 C 206.332031 146.917969 204.921875 146.328125 203.488281 145.800781 C 202.054688 145.273438 200.601562 144.8125 199.125 144.417969 C 197.648438 144.023438 196.15625 143.695312 194.652344 143.433594 C 193.148438 143.171875 191.632812 142.976562 190.109375 142.851562 C 188.589844 142.726562 187.0625 142.667969 185.535156 142.679688 C 184.007812 142.691406 182.488281 142.773438 180.96875 142.921875 C 179.449219 143.070312 177.9375 143.285156 176.441406 143.570312 C 174.941406 143.855469 173.457031 144.207031 171.992188 144.625 C 170.523438 145.042969 169.082031 145.523438 167.660156 146.070312 C 166.238281 146.621094 164.84375 147.230469 163.476562 147.902344 C 162.109375 148.578125 160.777344 149.308594 159.480469 150.105469 C 158.183594 150.898438 156.921875 151.746094 155.703125 152.652344 C 154.480469 153.5625 153.304688 154.519531 152.171875 155.535156 C 151.039062 156.546875 149.953125 157.609375 148.917969 158.71875 C 147.882812 159.832031 146.898438 160.984375 145.96875 162.183594 C 145.039062 163.386719 144.164062 164.625 143.347656 165.902344 C 142.53125 167.179688 141.773438 168.496094 141.078125 169.839844 C 140.382812 171.1875 139.746094 172.5625 139.175781 173.96875 " fill-opacity="1" fill-rule="evenodd"/><path fill="#5d5d5d" d="M 177.835938 140.140625 C 179.230469 140.046875 180.632812 140.003906 182.046875 140.015625 C 183.460938 140.027344 184.882812 140.089844 186.308594 140.207031 C 187.734375 140.320312 189.160156 140.488281 190.582031 140.710938 C 192.007812 140.929688 193.429688 141.203125 194.84375 141.523438 C 196.257812 141.847656 197.660156 142.21875 199.050781 142.644531 C 200.445312 143.066406 201.820312 143.539062 203.183594 144.058594 C 204.542969 144.578125 205.882812 145.144531 207.199219 145.757812 C 208.515625 146.371094 209.808594 147.027344 211.074219 147.730469 C 212.339844 148.429688 213.574219 149.175781 214.777344 149.957031 C 215.984375 150.742188 217.152344 151.566406 218.285156 152.429688 C 219.417969 153.289062 220.507812 154.1875 221.5625 155.121094 C 222.617188 156.054688 223.625 157.019531 224.589844 158.015625 C 225.558594 159.011719 226.476562 160.035156 227.347656 161.089844 C 228.21875 162.140625 229.039062 163.21875 229.808594 164.320312 C 230.578125 165.417969 231.292969 166.539062 231.957031 167.679688 C 232.617188 168.820312 233.226562 169.976562 233.777344 171.152344 C 233.238281 169.816406 232.644531 168.511719 231.992188 167.226562 C 231.34375 165.945312 230.640625 164.691406 229.882812 163.46875 C 229.125 162.242188 228.316406 161.054688 227.457031 159.898438 C 226.597656 158.746094 225.6875 157.628906 224.734375 156.546875 C 223.777344 155.46875 222.777344 154.433594 221.734375 153.441406 C 220.691406 152.445312 219.605469 151.496094 218.480469 150.59375 C 217.355469 149.691406 216.191406 148.839844 214.996094 148.035156 C 213.796875 147.230469 212.566406 146.480469 211.304688 145.78125 C 210.042969 145.082031 208.753906 144.4375 207.4375 143.847656 C 206.117188 143.253906 204.777344 142.722656 203.417969 142.246094 C 202.054688 141.769531 200.675781 141.351562 199.277344 140.992188 C 197.878906 140.632812 196.46875 140.332031 195.046875 140.09375 C 193.621094 139.851562 192.191406 139.671875 190.753906 139.554688 C 189.316406 139.4375 187.875 139.378906 186.433594 139.382812 C 184.992188 139.386719 183.554688 139.453125 182.117188 139.582031 C 180.683594 139.707031 179.253906 139.894531 177.835938 140.140625 " fill-opacity="1" fill-rule="evenodd"/><path fill="#000000" d="M 186.050781 77.320312 L 188.949219 77.320312 L 188.949219 127.578125 L 186.050781 127.578125 Z M 186.050781 77.320312 " fill-opacity="0.05" fill-rule="nonzero"/><path fill="#ffffff" d="M 186.050781 247.421875 L 188.949219 247.421875 L 188.949219 297.679688 L 186.050781 297.679688 Z M 186.050781 247.421875 " fill-opacity="0.02" fill-rule="nonzero"/><path fill="#ffffff" d="M 77.320312 187.5 L 77.320312 188.949219 L 127.578125 188.949219 L 127.578125 186.050781 L 77.320312 186.050781 Z M 77.320312 187.5 " fill-opacity="0.05" fill-rule="nonzero"/><path fill="#ffffff" d="M 247.421875 187.5 L 247.421875 188.949219 L 297.679688 188.949219 L 297.679688 186.050781 L 247.421875 186.050781 Z M 247.421875 187.5 " fill-opacity="0.05" fill-rule="nonzero"/><path fill="#ffffff" d="M 77.320312 187.5 L 77.320312 188.949219 L 127.578125 188.949219 L 127.578125 186.050781 L 77.320312 186.050781 Z M 77.320312 187.5 " fill-opacity="0.15" fill-rule="nonzero"/><path fill="#ffffff" d="M 247.421875 187.5 L 247.421875 188.949219 L 297.679688 188.949219 L 297.679688 186.050781 L 247.421875 186.050781 Z M 247.421875 187.5 " fill-opacity="0.05" fill-rule="nonzero"/><path fill="#000000" d="M 2.417969 0.964844 C 1.972656 1.167969 1.648438 1.488281 1.449219 1.933594 L 144.492188 144.972656 L 145.457031 144.007812 Z M 2.417969 0.964844 " fill-opacity="0.3" fill-rule="nonzero"/><path fill="#000000" d="M 373.550781 0.964844 C 373.996094 1.167969 374.316406 1.488281 374.515625 1.933594 L 231.476562 144.972656 L 230.507812 144.007812 Z M 373.550781 0.964844 " fill-opacity="0.3" fill-rule="nonzero"/><path fill="#ffffff" d="M 373.550781 374.035156 C 373.996094 373.832031 374.316406 373.511719 374.515625 373.066406 L 231.476562 230.027344 L 230.507812 230.992188 Z M 373.550781 374.035156 " fill-opacity="0.1" fill-rule="nonzero"/><path fill="#ffffff" d="M 2.417969 374.035156 C 1.972656 373.832031 1.648438 373.511719 1.449219 373.066406 L 144.492188 230.027344 L 145.457031 230.992188 Z M 2.417969 374.035156 " fill-opacity="0.1" fill-rule="nonzero"/></svg>